<?xml version="1.0" encoding="UTF-8" standalone="yes"?>
<svg xmlns="http://www.w3.org/2000/svg" viewBox="0 0 24 24" width="50" height="50" fill="#ffffff">
  <path d="M 5 3 C 3.894531 3 3 3.894531 3 5 L 3 19 C 3 20.105469 3.894531 21 5 21 L 19 21 C 20.105469 21 21 20.105469 21 19 L 21 5 C 21 3.894531 20.105469 3 19 3 Z M 14.28125 7.34375 L 15.9375 7.34375 L 15.9375 16.34375 L 14.4375 16.34375 L 14.375 15.71875 C 14.214844 15.957031 13.808594 16.46875 13.0625 16.46875 C 12.390625 16.46875 11 16.210938 11 13.40625 L 11 13 C 11 11.960938 11.144531 9.90625 13.0625 9.90625 C 13.746094 9.90625 14.128906 10.332031 14.28125 10.53125 Z M 8.125 7.8125 L 9.84375 7.8125 L 9.84375 16.34375 L 8.125 16.34375 Z M 13.53125 11.28125 C 12.582031 11.28125 12.65625 12.523438 12.65625 13 L 12.65625 13.40625 C 12.65625 14.910156 13.066406 15.09375 13.53125 15.09375 C 13.984375 15.09375 14.203125 14.792969 14.28125 14.65625 L 14.28125 11.75 C 14.203125 11.601563 13.96875 11.28125 13.53125 11.28125 Z"/>
</svg>