<?xml version="1.0" encoding="UTF-8"?>
<svg xmlns="http://www.w3.org/2000/svg" xmlns:xlink="http://www.w3.org/1999/xlink" width="48pt" height="48pt" viewBox="0 0 48 48" version="1.1">
<g id="surface362277">
<path style=" stroke:none;fill-rule:nonzero;fill:rgb(100%,100%,100%);fill-opacity:1;" d="M 23 6 C 21.34375 6 20 7.34375 20 9 C 20 10.65625 21.34375 12 23 12 C 24.65625 12 26 10.65625 26 9 C 26 7.34375 24.65625 6 23 6 Z M 33 8 C 31.34375 8 30 9.34375 30 11 C 30 12.65625 31.34375 14 33 14 C 34.65625 14 36 12.65625 36 11 C 36 9.34375 34.65625 8 33 8 Z M 12 10 C 10.894531 10 10 10.894531 10 12 C 10 13.105469 10.894531 14 12 14 C 13.105469 14 14 13.105469 14 12 C 14 10.894531 13.105469 10 12 10 Z M 39 18 C 37.34375 18 36 19.34375 36 21 C 36 22.65625 37.34375 24 39 24 C 40.65625 24 42 22.65625 42 21 C 42 19.34375 40.65625 18 39 18 Z M 8 20 C 6.894531 20 6 20.894531 6 22 C 6 23.105469 6.894531 24 8 24 C 9.105469 24 10 23.105469 10 22 C 10 20.894531 9.105469 20 8 20 Z M 36 28 C 33.789062 28 32 29.789062 32 32 C 32 34.210938 33.789062 36 36 36 C 38.210938 36 40 34.210938 40 32 C 40 29.789062 38.210938 28 36 28 Z M 12 30 C 10.894531 30 10 30.894531 10 32 C 10 33.105469 10.894531 34 12 34 C 13.105469 34 14 33.105469 14 32 C 14 30.894531 13.105469 30 12 30 Z M 23 32 C 20.238281 32 18 34.238281 18 37 C 18 39.761719 20.238281 42 23 42 C 25.761719 42 28 39.761719 28 37 C 28 34.238281 25.761719 32 23 32 Z M 23 32 "/>
</g>
</svg>
