<svg width="12" height="22" viewBox="0 0 12 22" fill="none" xmlns="http://www.w3.org/2000/svg">
<path fill-rule="evenodd" clip-rule="evenodd" d="M6 15C7.19469 15 8.26706 14.4762 9 13.6458V16.1973C8.11748 16.7078 7.09286 17 6 17C2.68629 17 0 14.3137 0 11V1.09091C0 0.488417 0.447717 0 1 0C1.55229 0 2 0.488417 2 1.09091L2 11C2 13.2091 3.79086 15 6 15ZM6 7C4.80531 7 3.73295 7.52375 3 8.35417L3 5.80269C3.88252 5.29218 4.90714 5 6 5C9.31371 5 12 7.68629 12 11L12 20.9091C12 21.5116 11.5523 22 11 22C10.4477 22 10 21.5116 10 20.9091L10 11C10 8.79086 8.20914 7 6 7Z" fill="black"/>
</svg>
